<mxfile host="app.diagrams.net" agent="Mozilla/5.0 (Windows NT 10.0; Win64; x64) AppleWebKit/537.36 (KHTML, like Gecko) Chrome/131.0.0.0 Safari/537.36 Edg/131.0.0.0" version="26.0.1">
  <diagram name="第 1 页" id="t6PiUsuVXjMinygrL5fd">
    <mxGraphModel dx="1834" dy="1295" grid="0" gridSize="10" guides="1" tooltips="1" connect="1" arrows="1" fold="1" page="0" pageScale="1" pageWidth="827" pageHeight="1169" math="0" shadow="0">
      <root>
        <mxCell id="0" />
        <mxCell id="1" parent="0" />
        <mxCell id="14Ckpb39VT0GHCtDDbz8-1" value="" style="rounded=0;whiteSpace=wrap;html=1;dashed=1;strokeWidth=3;" parent="1" vertex="1">
          <mxGeometry x="-255" y="-162" width="875" height="86" as="geometry" />
        </mxCell>
        <mxCell id="14Ckpb39VT0GHCtDDbz8-2" value="" style="rounded=0;whiteSpace=wrap;html=1;dashed=1;strokeWidth=3;" parent="1" vertex="1">
          <mxGeometry x="-253" y="56" width="874" height="274" as="geometry" />
        </mxCell>
        <mxCell id="14Ckpb39VT0GHCtDDbz8-3" value="" style="rounded=0;whiteSpace=wrap;html=1;dashed=1;strokeWidth=3;" parent="1" vertex="1">
          <mxGeometry x="-255" y="-53" width="876" height="86" as="geometry" />
        </mxCell>
        <mxCell id="14Ckpb39VT0GHCtDDbz8-4" value="" style="rounded=0;whiteSpace=wrap;html=1;dashed=1;strokeWidth=3;" parent="1" vertex="1">
          <mxGeometry x="-255" y="353" width="876" height="180" as="geometry" />
        </mxCell>
        <mxCell id="Q42F53yCSbWkSL1UYH6B-1" value="图谱应用" style="text;html=1;align=center;verticalAlign=middle;whiteSpace=wrap;rounded=0;fontSize=16;" vertex="1" parent="1">
          <mxGeometry x="-229" y="-134" width="46" height="30" as="geometry" />
        </mxCell>
        <mxCell id="Q42F53yCSbWkSL1UYH6B-2" value="图谱构建" style="text;html=1;align=center;verticalAlign=middle;whiteSpace=wrap;rounded=0;fontSize=16;" vertex="1" parent="1">
          <mxGeometry x="-229" y="178" width="46" height="30" as="geometry" />
        </mxCell>
        <mxCell id="Q42F53yCSbWkSL1UYH6B-3" value="知识计算" style="text;html=1;align=center;verticalAlign=middle;whiteSpace=wrap;rounded=0;fontSize=16;" vertex="1" parent="1">
          <mxGeometry x="-229" y="-25" width="46" height="30" as="geometry" />
        </mxCell>
        <mxCell id="Q42F53yCSbWkSL1UYH6B-4" value="数据获取" style="text;html=1;align=center;verticalAlign=middle;whiteSpace=wrap;rounded=0;fontSize=16;" vertex="1" parent="1">
          <mxGeometry x="-229" y="428" width="46" height="30" as="geometry" />
        </mxCell>
        <mxCell id="Q42F53yCSbWkSL1UYH6B-6" value="&lt;font style=&quot;font-size: 17px;&quot;&gt;&lt;b&gt;智能搜索&lt;/b&gt;&lt;/font&gt;" style="rounded=0;whiteSpace=wrap;html=1;fillColor=#dae8fc;strokeColor=#6c8ebf;" vertex="1" parent="1">
          <mxGeometry x="-157" y="-142.5" width="120" height="47" as="geometry" />
        </mxCell>
        <mxCell id="Q42F53yCSbWkSL1UYH6B-7" value="&lt;font style=&quot;font-size: 16px;&quot;&gt;&lt;b&gt;智能问答&lt;/b&gt;&lt;/font&gt;" style="rounded=0;whiteSpace=wrap;html=1;fillColor=#dae8fc;strokeColor=#6c8ebf;" vertex="1" parent="1">
          <mxGeometry x="-11" y="-142.5" width="120" height="47" as="geometry" />
        </mxCell>
        <mxCell id="Q42F53yCSbWkSL1UYH6B-8" value="&lt;b&gt;&lt;font style=&quot;font-size: 16px;&quot;&gt;辅助决策&lt;/font&gt;&lt;/b&gt;" style="rounded=0;whiteSpace=wrap;html=1;fillColor=#dae8fc;strokeColor=#6c8ebf;" vertex="1" parent="1">
          <mxGeometry x="135" y="-142.5" width="120" height="47" as="geometry" />
        </mxCell>
        <mxCell id="Q42F53yCSbWkSL1UYH6B-9" value="&lt;b&gt;&lt;font style=&quot;font-size: 16px;&quot;&gt;知识管理及第三方应用&lt;/font&gt;&lt;/b&gt;" style="rounded=0;whiteSpace=wrap;html=1;fillColor=#dae8fc;strokeColor=#6c8ebf;" vertex="1" parent="1">
          <mxGeometry x="281" y="-142.5" width="120" height="47" as="geometry" />
        </mxCell>
        <mxCell id="Q42F53yCSbWkSL1UYH6B-10" value="··· ···" style="text;html=1;align=center;verticalAlign=middle;whiteSpace=wrap;rounded=0;fontSize=16;" vertex="1" parent="1">
          <mxGeometry x="427" y="-134" width="60" height="30" as="geometry" />
        </mxCell>
        <mxCell id="Q42F53yCSbWkSL1UYH6B-12" value="&lt;font style=&quot;font-size: 17px;&quot;&gt;&lt;b&gt;表示学习&lt;/b&gt;&lt;/font&gt;" style="rounded=0;whiteSpace=wrap;html=1;fillColor=#dae8fc;strokeColor=#6c8ebf;" vertex="1" parent="1">
          <mxGeometry x="-157" y="-33.5" width="120" height="47" as="geometry" />
        </mxCell>
        <mxCell id="Q42F53yCSbWkSL1UYH6B-13" value="&lt;font style=&quot;font-size: 16px;&quot;&gt;&lt;b&gt;关系推理&lt;/b&gt;&lt;/font&gt;" style="rounded=0;whiteSpace=wrap;html=1;fillColor=#dae8fc;strokeColor=#6c8ebf;" vertex="1" parent="1">
          <mxGeometry x="-11" y="-33.5" width="120" height="47" as="geometry" />
        </mxCell>
        <mxCell id="Q42F53yCSbWkSL1UYH6B-14" value="&lt;b&gt;&lt;font style=&quot;font-size: 16px;&quot;&gt;属性推理&lt;/font&gt;&lt;/b&gt;" style="rounded=0;whiteSpace=wrap;html=1;fillColor=#dae8fc;strokeColor=#6c8ebf;" vertex="1" parent="1">
          <mxGeometry x="135" y="-33.5" width="120" height="47" as="geometry" />
        </mxCell>
        <mxCell id="Q42F53yCSbWkSL1UYH6B-15" value="&lt;b&gt;&lt;font style=&quot;font-size: 16px;&quot;&gt;事件推理&lt;/font&gt;&lt;/b&gt;" style="rounded=0;whiteSpace=wrap;html=1;fillColor=#dae8fc;strokeColor=#6c8ebf;" vertex="1" parent="1">
          <mxGeometry x="281" y="-33.5" width="120" height="47" as="geometry" />
        </mxCell>
      </root>
    </mxGraphModel>
  </diagram>
</mxfile>
